<?xml version="1.0" encoding="UTF-8"?>
<!DOCTYPE svg PUBLIC "-//W3C//DTD SVG 1.1//EN" "http://www.w3.org/Graphics/SVG/1.1/DTD/svg11.dtd">
<!-- Creator: CorelDRAW 2021 (64-Bit) -->
<svg xmlns="http://www.w3.org/2000/svg" xml:space="preserve" width="415px" height="100px" version="1.1" style="shape-rendering:geometricPrecision; text-rendering:geometricPrecision; image-rendering:optimizeQuality; fill-rule:evenodd; clip-rule:evenodd"
viewBox="0 0 259.24 62.45"
 xmlns:xlink="http://www.w3.org/1999/xlink"
 xmlns:xodm="http://www.corel.com/coreldraw/odm/2003">
 <defs>
  <style type="text/css">
   <![CDATA[
    .fil0 {fill:black;fill-rule:nonzero}
    .fil1 {fill:#D02F27;fill-rule:nonzero}
   ]]>
  </style>
 </defs>
 <g id="Layer_x0020_1">
  <metadata id="CorelCorpID_0Corel-Layer"/>
  <path class="fil0" d="M1.9 2.12l-1.9 1.9 0 6.53 1.9 1.9 4 0 0 2.13 1.2 0 0 -2.13 4.01 0 1.9 -1.9 0 -6.53 -1.9 -1.9 -4.01 0 0 -2.12 -1.2 0 0 2.12 -4 0zm8.71 1.2l1.2 1.2 0 5.54 -1.2 1.2 -3.51 0 0 -7.94 3.51 0zm-4.71 0l0 7.94 -3.5 0 -1.2 -1.2 0 -5.54 1.2 -1.2 3.5 0zm14.97 9.6l-3.82 0 -0.81 -0.82 0 -2.1 5.07 0 1.51 -1.49 0 -2.72 -1.51 -1.51 -4.76 0 -1.51 1.51 0 6.81 1.51 1.52 4.43 0 1.88 -0.6 -0.37 -1.12 -1.62 0.52zm-3.82 -7.44l3.76 0 0.81 0.81 0 1.7 -0.81 0.81 -4.57 0 0 -2.51 0.81 -0.81zm15.26 8.64l0 2.58 1.2 0 0 -3.78 -1.05 0 0 -8.64 -6.31 0 -0.74 7.22 -0.85 1.42 -0.96 0 0 3.78 1.2 0 0 -2.58 7.51 0zm-5.65 -2.44l0.65 -6.2 3.95 0 0 7.44 -5.32 0 0.72 -1.24zm14.15 1.24l-3.81 0 -0.82 -0.82 0 -2.1 5.08 0 1.51 -1.49 0 -2.72 -1.51 -1.51 -4.76 0 -1.52 1.51 0 6.81 1.52 1.52 4.43 0 1.88 -0.6 -0.37 -1.12 -1.63 0.52zm-3.81 -7.44l3.76 0 0.81 0.81 0 1.7 -0.81 0.81 -4.58 0 0 -2.51 0.82 -0.81zm9.18 6.33l0 -5.09 1.24 -1.24 3.36 0 0.79 0.79 0 5.85 -0.79 0.8 -3.49 0 -1.11 -1.11zm0 1.71l0.59 0.6 4.51 0 1.49 -1.5 0 -6.84 -1.49 -1.5 -4.34 0 -1.03 1.03 -0.3 -1.18 -1.14 0.28 0.51 2.08 0 10.72 1.22 0 -0.02 -3.69zm16.43 -7.73l-1.54 -1.51 -4.17 0 -1.86 0.63 0.39 1.12 1.6 -0.55 3.55 0 0.83 0.81 0 2.12 -5.08 0 -1.53 1.52 0 2.67 1.53 1.52 4.32 0 1.03 -1.04 0.3 1.18 1.14 -0.27 -0.51 -2.09 0 -6.11zm-2.44 7.13l-3.34 0 -0.83 -0.82 0 -1.67 0.83 -0.82 4.58 0 0 2.07 -1.24 1.24zm12.97 -8.64l-6.27 0 -0.81 7.66 -0.82 0.83 -1.19 0.37 0.35 1.16 1.6 -0.5 1.22 -1.23 0.74 -7.09 3.98 0 0 8.64 1.2 0 0 -9.84zm2.22 9.84l6.29 0 1.51 -1.52 0 -3.02 -1.51 -1.52 -5.09 0 0 -3.78 -1.2 0 0 9.84zm6.6 -4.05l0 2.03 -0.81 0.82 -4.59 0 0 -3.66 4.59 0 0.81 0.81zm3.21 4.05l1.2 0 0 -4.41 5.39 0 0 4.41 1.2 0 0 -9.84 -1.2 0 0 4.23 -5.39 0 0 -2.51 -0.61 -1.87 -1.12 0.37 0.53 1.63 0 7.99zm17.88 -1.54l0 -6.77 -1.51 -1.53 -4.85 0 -1.52 1.53 0 6.77 1.52 1.54 4.85 0 1.51 -1.54zm-5.87 0.34l-0.81 -0.83 0 -5.78 0.81 -0.83 3.86 0 0.81 0.83 0 5.78 -0.81 0.83 -3.86 0zm13.92 0l-3.82 0 -0.82 -0.82 0 -2.1 5.08 0 1.51 -1.49 0 -2.72 -1.51 -1.51 -4.76 0 -1.51 1.51 0 6.81 1.51 1.52 4.43 0 1.88 -0.6 -0.37 -1.12 -1.62 0.52zm-3.82 -7.44l3.76 0 0.81 0.81 0 1.7 -0.81 0.81 -4.58 0 0 -2.51 0.82 -0.81zm20.81 0.31l-1.53 -1.51 -4.17 0 -1.87 0.63 0.39 1.12 1.61 -0.55 3.54 0 0.83 0.81 0 2.12 -5.07 0 -1.54 1.52 0 2.67 1.54 1.52 4.31 0 1.04 -1.04 0.29 1.18 1.15 -0.27 -0.52 -2.09 0 -6.11zm-2.44 7.13l-3.34 0 -0.83 -0.82 0 -1.67 0.83 -0.82 4.58 0 0 2.07 -1.24 1.24zm6.2 -7.44l5.61 0 0 -1.2 -6.82 0 0 9.84 1.21 0 0 -8.64zm12.37 7.44l-3.82 0 -0.82 -0.82 0 -2.1 5.08 0 1.51 -1.49 0 -2.72 -1.51 -1.51 -4.76 0 -1.51 1.51 0 6.81 1.51 1.52 4.43 0 1.88 -0.6 -0.37 -1.12 -1.62 0.52zm-3.82 -7.44l3.76 0 0.81 0.81 0 1.7 -0.81 0.81 -4.58 0 0 -2.51 0.82 -0.81zm8 8.64l1.2 0 0 -4.41 5.39 0 0 4.41 1.2 0 0 -9.84 -1.2 0 0 4.23 -5.39 0 0 -2.51 -0.6 -1.87 -1.13 0.37 0.53 1.63 0 7.99zm15.84 -1.2l-3.84 0 -0.8 -0.78 0 -5.89 0.8 -0.77 3.8 0 0.79 0.77 0 1.59 1.2 0 0 -2.03 -1.51 -1.53 -4.76 0 -1.51 1.53 0 6.77 1.51 1.54 4.43 0 1.88 -0.6 -0.37 -1.12 -1.62 0.52zm2.54 -8.64l0 1.2 3.29 0 0 8.64 1.2 0 0 -8.64 3.28 0 0 -1.2 -7.77 0zm16.35 1.2l-1.2 -1.2 -6.27 0 0 9.84 6.29 0 1.49 -1.5 0 -2.71 -0.9 -0.91 0.59 -0.59 0 -2.93zm-1.2 0.5l0 1.92 -0.5 0.5 -4.57 0 0 -2.92 4.57 0 0.5 0.5zm0.31 4.45l0 1.67 -0.81 0.82 -4.57 0 0 -3.33 4.54 0 0.84 0.84zm11.11 2.15l0 -6.77 -1.51 -1.53 -4.85 0 -1.52 1.53 0 6.77 1.52 1.54 4.85 0 1.51 -1.54zm-5.87 0.34l-0.81 -0.83 0 -5.78 0.81 -0.83 3.86 0 0.81 0.83 0 5.78 -0.81 0.83 -3.86 0z"/>
  <path class="fil0" d="M1.38 25.34l5.39 0 0 8.64 1.2 0 0 -9.38 -0.46 -0.46 -6.86 0 -0.47 0.46 0 9.38 1.2 0 0 -8.64zm16.68 7.1l0 -6.77 -1.51 -1.53 -4.85 0 -1.51 1.53 0 6.77 1.51 1.54 4.85 0 1.51 -1.54zm-5.86 0.34l-0.82 -0.83 0 -5.78 0.82 -0.83 3.85 0 0.81 0.83 0 5.78 -0.81 0.83 -3.85 0zm14.83 -7.44l5.61 0 0 -1.2 -6.83 0 0 9.84 1.22 0 0 -8.64zm14.41 7.1l0 -6.77 -1.51 -1.53 -4.85 0 -1.52 1.53 0 6.77 1.52 1.54 4.85 0 1.51 -1.54zm-5.87 0.34l-0.81 -0.83 0 -5.78 0.81 -0.83 3.86 0 0.81 0.83 0 5.78 -0.81 0.83 -3.86 0zm13.92 0l-3.84 0 -0.79 -0.78 0 -5.88 0.79 -0.78 3.8 0 0.79 0.78 0 1.58 1.2 0 0 -2.03 -1.51 -1.53 -4.76 0 -1.51 1.53 0 6.77 1.51 1.54 4.43 0 1.88 -0.59 -0.37 -1.13 -1.62 0.52zm6.31 4.3l1.09 -1.09 3.87 -11.66 -1.13 -0.37 -2.89 8.69 -3.56 -8.69 -1.15 0.46 3.93 9.56 0.34 0 -0.47 1.4 -0.49 0.5 -1.9 0 0 1.2 2.36 0zm13.3 -3.1l0 2.58 1.2 0 0 -3.78 -1.05 0 0 -8.64 -6.31 0 -0.74 7.22 -0.85 1.42 -0.96 0 0 3.78 1.2 0 0 -2.58 7.51 0zm-5.65 -2.44l0.65 -6.2 3.95 0 0 7.44 -5.32 0 0.72 -1.24zm15.95 -5.89l-1.54 -1.51 -4.17 0 -1.86 0.63 0.39 1.12 1.6 -0.55 3.55 0 0.83 0.81 0 2.12 -5.08 0 -1.53 1.52 0 2.67 1.53 1.52 4.32 0 1.03 -1.04 0.3 1.18 1.14 -0.27 -0.51 -2.09 0 -6.11zm-2.44 7.13l-3.34 0 -0.83 -0.82 0 -1.67 0.83 -0.82 4.58 0 0 2.07 -1.24 1.24zm6.51 -1.11l0 -5.09 1.24 -1.24 3.36 0 0.79 0.79 0 5.85 -0.79 0.8 -3.49 0 -1.11 -1.11zm0 1.72l0.59 0.59 4.51 0 1.49 -1.5 0 -6.84 -1.49 -1.5 -4.34 0 -1.03 1.03 -0.3 -1.18 -1.14 0.28 0.51 2.09 0 10.72 1.22 0 -0.02 -3.69zm14.64 -0.61l-3.84 0 -0.8 -0.78 0 -5.88 0.8 -0.78 3.8 0 0.79 0.78 0 1.58 1.2 0 0 -2.03 -1.51 -1.53 -4.76 0 -1.51 1.53 0 6.77 1.51 1.54 4.43 0 1.88 -0.59 -0.37 -1.13 -1.62 0.52zm2.54 -8.64l0 1.2 3.29 0 0 8.64 1.2 0 0 -8.64 3.28 0 0 -1.2 -7.77 0zm16.35 1.2l-1.2 -1.2 -6.27 0 0 9.84 6.29 0 1.49 -1.5 0 -2.71 -0.9 -0.91 0.59 -0.59 0 -2.93zm-1.2 0.5l0 1.92 -0.5 0.5 -4.57 0 0 -2.92 4.57 0 0.5 0.5zm0.31 4.45l0 1.67 -0.81 0.82 -4.57 0 0 -3.32 4.54 0 0.84 0.83zm9.06 2.49l-3.82 0 -0.81 -0.82 0 -2.1 5.08 0 1.51 -1.49 0 -2.72 -1.51 -1.51 -4.76 0 -1.52 1.51 0 6.81 1.52 1.52 4.42 0 1.89 -0.59 -0.37 -1.13 -1.63 0.52zm-3.82 -7.44l3.77 0 0.81 0.81 0 1.7 -0.81 0.81 -4.58 0 0 -2.51 0.81 -0.81zm8.01 8.64l1.2 0 0 -4.41 5.39 0 0 4.41 1.2 0 0 -9.84 -1.2 0 0 4.23 -5.39 0 0 -2.51 -0.61 -1.87 -1.12 0.37 0.53 1.63 0 7.99zm10.35 0l1.2 0 0 -4.41 5.39 0 0 4.41 1.2 0 0 -9.84 -1.2 0 0 4.23 -5.39 0 0 -2.51 -0.61 -1.87 -1.12 0.37 0.53 1.63 0 7.99zm20.58 -9.84l-1.2 0 0 9.84 1.2 0 0 -9.84zm-10.58 9.84l6.3 0 1.51 -1.52 0 -3.02 -1.51 -1.52 -5.1 0 0 -3.78 -1.2 0 0 9.84zm6.61 -4.04l0 2.02 -0.81 0.82 -4.6 0 0 -3.66 4.6 0 0.81 0.82zm11.22 0.33l-3.71 -6.13 -1.33 0 0 9.84 1.2 0 0 -7.75 3.3 5.42 1.07 0 3.31 -5.42 0 7.75 1.2 0 0 -9.84 -1.33 0 -3.71 6.13zm14.32 1.4l0 -5.09 1.23 -1.24 3.36 0 0.79 0.79 0 5.85 -0.79 0.8 -3.49 0 -1.1 -1.11zm0 1.72l0.59 0.59 4.5 0 1.49 -1.5 0 -6.84 -1.49 -1.5 -4.34 0 -1.03 1.03 -0.3 -1.18 -1.14 0.28 0.52 2.09 0 10.72 1.21 0 -0.01 -3.69zm14.63 -0.61l-3.82 0 -0.81 -0.82 0 -2.1 5.07 0 1.51 -1.49 0 -2.72 -1.51 -1.51 -4.76 0 -1.51 1.51 0 6.81 1.51 1.52 4.43 0 1.88 -0.59 -0.37 -1.13 -1.62 0.52zm-3.82 -7.44l3.76 0 0.81 0.81 0 1.7 -0.81 0.81 -4.57 0 0 -2.51 0.81 -0.81zm14.39 2.79l0 -2.55 -1.44 -1.44 -4.22 0 -1.87 0.63 0.37 1.11c0.43,-0.13 1.16,-0.39 1.63,-0.54l3.59 0 0.74 0.74 0 1.6 -0.68 0.67 -3.73 0 0 1.2 3.67 0 0.83 0.83 0 1.58 -0.81 0.82 -3.71 0 -1.66 -0.52 -0.37 1.13 1.89 0.59 4.35 0 1.51 -1.52 0 -2.6 -0.9 -0.9 0.81 -0.83zm7.95 4.65l-3.82 0 -0.81 -0.82 0 -2.1 5.08 0 1.51 -1.49 0 -2.72 -1.51 -1.51 -4.76 0 -1.52 1.51 0 6.81 1.52 1.52 4.42 0 1.89 -0.59 -0.37 -1.13 -1.63 0.52zm-3.82 -7.44l3.77 0 0.81 0.81 0 1.7 -0.81 0.81 -4.58 0 0 -2.51 0.81 -0.81zm9.19 6.33l0 -5.09 1.24 -1.24 3.36 0 0.79 0.79 0 5.85 -0.79 0.8 -3.49 0 -1.11 -1.11zm0 1.72l0.59 0.59 4.51 0 1.49 -1.5 0 -6.84 -1.49 -1.5 -4.34 0 -1.03 1.03 -0.3 -1.18 -1.14 0.28 0.51 2.09 0 10.72 1.22 0 -0.02 -3.69zm16.28 -8.05l-1.2 -1.2 -6.28 0 0 9.84 6.3 0 1.49 -1.5 0 -2.71 -0.9 -0.91 0.59 -0.59 0 -2.93zm-1.2 0.5l0 1.92 -0.5 0.5 -4.58 0 0 -2.92 4.58 0 0.5 0.5zm0.31 4.45l0 1.67 -0.81 0.82 -4.58 0 0 -3.32 4.54 0 0.85 0.83zm10.85 -4.64l-1.53 -1.51 -4.17 0 -1.86 0.63 0.38 1.12 1.61 -0.55 3.54 0 0.83 0.81 0 2.12 -5.07 0 -1.53 1.52 0 2.67 1.53 1.52 4.32 0 1.03 -1.04 0.29 1.18 1.15 -0.27 -0.52 -2.09 0 -6.11zm-2.43 7.13l-3.34 0 -0.83 -0.82 0 -1.67 0.83 -0.82 4.57 0 0 2.07 -1.23 1.24zm10.01 -2.51l-3.7 -6.13 -1.33 0 0 9.84 1.2 0 0 -7.75 3.3 5.42 1.07 0 3.3 -5.42 0 7.75 1.2 0 0 -9.84 -1.33 0 -3.71 6.13z"/>
  <path class="fil1" d="M4.22 55.57l7.63 0 3.23 -3.2 0 -6.49 -3.23 -3.21 -10.84 0 0 19.78 3.21 0 0 -6.88zm6.24 -9.97l1.42 1.45 0 4.15 -1.42 1.44 -6.24 0 0 -7.04 6.24 0zm10.91 -2.93l-3.51 3.21 0 13.36 3.51 3.21 7.88 0 3.51 -3.21 0 -13.36 -3.51 -3.21 -7.88 0zm8.19 4.4l0 10.98 -1.59 1.47 -5.32 0 -1.58 -1.45 0 -11 1.58 -1.47 5.32 0 1.59 1.47zm16.26 12.45l-5.06 0 -1.45 -1.45 0 -11.02 1.45 -1.45 4.76 0 1.45 1.45 0 2.31 3.2 0 0 -3.46 -3.23 -3.23 -7.6 0 -3.24 3.23 0 13.32 3.24 3.23 7.93 0 3.21 -3.21 -2.21 -2.17 -2.45 2.45zm10.64 -3.95l7.63 0 3.23 -3.2 0 -6.49 -3.23 -3.21 -10.83 0 0 19.78 3.2 0 0 -6.88zm6.24 -9.97l1.42 1.45 0 4.15 -1.42 1.44 -6.24 0 0 -7.04 6.24 0zm7.69 16.85l12.61 0 0 -2.93 -9.41 0 0 -5.93 8.24 0 0 -2.92 -8.24 0 0 -5.07 9.41 0 0 -2.93 -12.61 0 0 19.78zm24.78 -12.62l-1.5 1.17 -4.87 0 0 2.92 4.73 0 1.84 1.42 0 2.73 -1.45 1.45 -5.51 0 -3.04 -1 -0.97 2.76 3.42 1.17 7.55 0 3.2 -3.21 0 -4.9 -2.42 -1.89 2.23 -1.76 0 -4.98 -3.04 -3.04 -7.13 0 -3.56 1.17 1 2.82 3.01 -1.06 5.2 0 1.31 1.28 0 2.95zm6.74 12.62l12.62 0 0 -2.93 -9.42 0 0 -5.93 8.25 0 0 -2.92 -8.25 0 0 -5.07 9.42 0 0 -2.93 -12.62 0 0 19.78zm18.61 -6.88l7.63 0 3.23 -3.2 0 -6.49 -3.23 -3.21 -10.84 0 0 19.78 3.21 0 0 -6.88zm6.23 -9.97l1.42 1.45 0 4.15 -1.42 1.44 -6.23 0 0 -7.04 6.23 0zm19.33 6.54l1.84 -1.45 0 -5.34 -2.67 -2.68 -10.81 0 0 19.78 10.83 0 3.23 -3.23 0 -5.18 -2.42 -1.9zm-0.78 2.9l0 3.09 -1.39 1.39 -6.27 0 0 -5.9 5.82 0 1.84 1.42zm-7.66 -9.44l6.21 0 0.87 0.86 0 3.37 -1.12 0.86 -5.96 0 0 -5.09z"/>
 </g>
</svg>
