<?xml version="1.0" encoding="UTF-8"?>
<!DOCTYPE svg PUBLIC "-//W3C//DTD SVG 1.1//EN" "http://www.w3.org/Graphics/SVG/1.1/DTD/svg11.dtd">
<!-- Creator: CorelDRAW 2021 (64-Bit) -->
<svg xmlns="http://www.w3.org/2000/svg" xml:space="preserve" width="100px" height="100px" version="1.1" style="shape-rendering:geometricPrecision; text-rendering:geometricPrecision; image-rendering:optimizeQuality; fill-rule:evenodd; clip-rule:evenodd"
viewBox="0 0 7.62 7.55"
 xmlns:xlink="http://www.w3.org/1999/xlink"
 xmlns:xodm="http://www.corel.com/coreldraw/odm/2003">
 <defs>
  <style type="text/css">
   <![CDATA[
    .fil0 {fill:#898989;fill-rule:nonzero}
   ]]>
  </style>
 </defs>
 <g id="Layer_x0020_1">
  <metadata id="CorelCorpID_0Corel-Layer"/>
  <g id="_2080035805776">
   <path class="fil0" d="M7.48 6.74c0.19,0.18 0.19,0.48 0.01,0.67 -0.18,0.18 -0.48,0.19 -0.67,0l-2.34 -2.29c-0.19,-0.18 -0.19,-0.48 0,-0.67 0.18,-0.18 0.48,-0.18 0.66,0l2.34 2.29z"/>
   <path class="fil0" d="M2.93 0c0.81,0 1.55,0.33 2.08,0.86 0.53,0.53 0.86,1.26 0.86,2.07 0,0.81 -0.33,1.55 -0.86,2.08 -0.53,0.53 -1.27,0.86 -2.08,0.86 -0.81,0 -1.54,-0.33 -2.07,-0.86 -0.53,-0.53 -0.86,-1.27 -0.86,-2.08 0,-0.81 0.33,-1.54 0.86,-2.07 0.53,-0.53 1.26,-0.86 2.07,-0.86zm1.41 1.53c-0.36,-0.36 -0.86,-0.58 -1.41,-0.58 -0.55,0 -1.04,0.22 -1.4,0.58 -0.36,0.36 -0.58,0.85 -0.58,1.4 0,0.55 0.22,1.05 0.58,1.41 0.36,0.35 0.85,0.58 1.4,0.58 0.55,0 1.05,-0.23 1.41,-0.58 0.35,-0.36 0.58,-0.86 0.58,-1.41 0,-0.55 -0.23,-1.04 -0.58,-1.4z"/>
  </g>
 </g>
</svg>
